# xmcd CD database file
#
# Track frame offsets:
#	150
#	15590
#	26842
#	41668
#	61291
#	78898
#	91380
#	111439
#	129085
#	144418
#	156723
#	176187
#	191494
#	206367
#	223690
#	240062
#
# Disc length: 3445 seconds
#
# Revision: 0
# Processed by: cddbd v1.4PL0 Copyright (c) Steve Scherf et al.
# Submitted via: CdAid (MTCDDB.DLL V2003.12.21)
#
DISCID=d70d7310
DTITLE=Various Artist - Country Fever Vol 6
DYEAR=2001
DGENRE=Country
TTITLE0=Achy Breaky Heart 
TTITLE1=Darned If I Don't 
TTITLE2=Single White Female 
TTITLE3=Foolish Pride 
TTITLE4=The Cheap Seats 
TTITLE5=Wild One 
TTITLE6=How Do I Live 
TTITLE7=You Love Amazes Me 
TTITLE8=She's Got It All 
TTITLE9=A Good Run of Bad Luck 
TTITLE10=I Wanna Fall In Love 
TTITLE11=Thinkin' About You 
TTITLE12=I Do (Cherish You)
TTITLE13=Aces
TTITLE14=Now That I Found You 
TTITLE15=That's Just About Right 
EXTD=ID3G:   2 YEAR: 2001
EXTT0=Billy Ray Cyrus
EXTT1=Shenandoah
EXTT2=Cheryl Wright
EXTT3=Travis Tritt
EXTT4=Alabama
EXTT5=Faith Hill
EXTT6=LeAnn Rimes
EXTT7=John Berry
EXTT8=Kenny Chesney
EXTT9=Clint Black
EXTT10=Lita McCann
EXTT11=Trisha Yearwood
EXTT12=Mark Willis
EXTT13=Suzy Boggus
EXTT14=Terri Clark
EXTT15=Blackhawk
PLAYORDER=
